<svg width="14" height="20" viewBox="0 0 14 20" fill="none" xmlns="http://www.w3.org/2000/svg">
<path d="M1.50919e-06 4.244C1.50919e-06 2.176 1.676 0.5 3.744 0.5H9.504C11.082 0.5 12.49 1.488 13.026 2.972C13.562 4.456 13.11 6.116 11.897 7.124C13.422 8.386 13.701 10.617 12.533 12.216C11.366 13.815 9.156 14.228 7.489 13.16V15.764C7.489 17.501 6.293 19.01 4.602 19.408C2.911 19.806 1.169 18.988 0.394002 17.433C-0.380998 15.878 0.0160018 13.994 1.352 12.884C0.495002 12.173 -0.000998491 11.118 1.50919e-06 10.004C1.50919e-06 8.846 0.526002 7.811 1.352 7.124C0.495002 6.413 -0.000998491 5.358 1.50919e-06 4.244ZM3.744 13.748C2.631 13.748 1.728 14.651 1.728 15.764C1.728 16.877 2.631 17.78 3.744 17.78C4.857 17.78 5.76 16.877 5.76 15.764V13.748H3.744ZM9.504 6.26C10.617 6.26 11.52 5.357 11.52 4.244C11.52 3.131 10.617 2.228 9.504 2.228H7.488V6.26H9.504ZM9.514 12.02C10.623 12.014 11.52 11.114 11.52 10.004C11.52 8.894 10.623 7.994 9.514 7.988C8.404 7.983 7.499 8.875 7.488 9.984V10.024C7.499 11.133 8.404 12.025 9.514 12.02ZM5.76 7.988H3.744C2.631 7.988 1.728 8.891 1.728 10.004C1.728 11.117 2.631 12.02 3.744 12.02H5.76V7.988ZM5.76 6.26V2.228H3.744C2.631 2.228 1.728 3.131 1.728 4.244C1.728 5.357 2.631 6.26 3.744 6.26H5.76Z" fill="white"/>
</svg>
